<svg xmlns="http://www.w3.org/2000/svg" xmlns:xlink="http://www.w3.org/1999/xlink" width="1280" zoomAndPan="magnify" viewBox="0 0 960 540.000001" height="720" preserveAspectRatio="xMidYMid meet" version="1.0"><defs><g/><clipPath id="d537c51b90"><path d="M 0.886719 0 L 959.113281 0 L 959.113281 539 L 0.886719 539 Z M 0.886719 0 " clip-rule="nonzero"/></clipPath></defs><g clip-path="url(#d537c51b90)"><path fill="#ffffff" d="M 0.886719 0 L 959.113281 0 L 959.113281 539 L 0.886719 539 Z M 0.886719 0 " fill-opacity="1" fill-rule="nonzero"/><path fill="#348ddb" d="M 0.886719 0 L 959.113281 0 L 959.113281 539 L 0.886719 539 Z M 0.886719 0 " fill-opacity="1" fill-rule="nonzero"/></g><g fill="#e1a730" fill-opacity="1"><g transform="translate(426.323598, 280.355831)"><g><path d="M 20.375 -5.84375 C 20.375 -4.632812 20.054688 -3.59375 19.421875 -2.71875 C 18.796875 -1.84375 17.953125 -1.171875 16.890625 -0.703125 C 15.828125 -0.234375 14.65625 0 13.375 0 L 2.5625 0 L 2.5625 -22.671875 L 14.25 -22.671875 C 15.3125 -22.671875 16.226562 -22.390625 17 -21.828125 C 17.78125 -21.265625 18.378906 -20.539062 18.796875 -19.65625 C 19.210938 -18.769531 19.421875 -17.847656 19.421875 -16.890625 C 19.421875 -15.785156 19.132812 -14.75 18.5625 -13.78125 C 18 -12.8125 17.195312 -12.09375 16.15625 -11.625 C 17.457031 -11.238281 18.484375 -10.539062 19.234375 -9.53125 C 19.992188 -8.519531 20.375 -7.289062 20.375 -5.84375 Z M 16.703125 -6.515625 C 16.703125 -7.148438 16.566406 -7.726562 16.296875 -8.25 C 16.035156 -8.769531 15.675781 -9.195312 15.21875 -9.53125 C 14.757812 -9.863281 14.222656 -10.03125 13.609375 -10.03125 L 6.125 -10.03125 L 6.125 -3.09375 L 13.375 -3.09375 C 14.019531 -3.09375 14.59375 -3.25 15.09375 -3.5625 C 15.59375 -3.875 15.984375 -4.289062 16.265625 -4.8125 C 16.554688 -5.332031 16.703125 -5.898438 16.703125 -6.515625 Z M 6.125 -19.578125 L 6.125 -12.90625 L 12.71875 -12.90625 C 13.3125 -12.90625 13.84375 -13.046875 14.3125 -13.328125 C 14.78125 -13.617188 15.148438 -14.015625 15.421875 -14.515625 C 15.703125 -15.015625 15.84375 -15.582031 15.84375 -16.21875 C 15.84375 -16.882812 15.710938 -17.46875 15.453125 -17.96875 C 15.203125 -18.46875 14.859375 -18.859375 14.421875 -19.140625 C 13.984375 -19.429688 13.476562 -19.578125 12.90625 -19.578125 Z M 6.125 -19.578125 "/></g></g></g><g fill="#e1a730" fill-opacity="1"><g transform="translate(447.878373, 280.355831)"><g><path d="M 2.5625 0 L 2.5625 -22.671875 L 6.125 -22.671875 L 6.125 -3.15625 L 18.296875 -3.15625 L 18.296875 0 Z M 2.5625 0 "/></g></g></g><g fill="#e1a730" fill-opacity="1"><g transform="translate(466.527244, 280.355831)"><g><path d="M 9.109375 -22.671875 L 12.484375 -22.671875 L 21.296875 0 L 17.53125 0 L 15.140625 -6.15625 L 6.390625 -6.15625 L 4.03125 0 L 0.21875 0 Z M 14.4375 -8.8125 L 10.796875 -18.75 L 7.03125 -8.8125 Z M 14.4375 -8.8125 "/></g></g></g><g fill="#000000" fill-opacity="1"><g transform="translate(488.084224, 280.355831)"><g><path d="M 6.125 -16.03125 L 6.125 0 L 2.5625 0 L 2.5625 -22.671875 L 5.5 -22.671875 L 18.328125 -6.296875 L 18.328125 -22.640625 L 21.9375 -22.640625 L 21.9375 0 L 18.8125 0 Z M 6.125 -16.03125 "/></g></g></g><g fill="#000000" fill-opacity="1"><g transform="translate(512.57683, 280.355831)"><g><path d="M 2.5625 0 L 2.5625 -22.640625 L 6.125 -22.640625 L 6.125 -10.984375 L 16.796875 -22.671875 L 20.765625 -22.671875 L 11.8125 -12.640625 L 21.265625 0 L 17.21875 0 L 9.546875 -10.375 L 6.125 -6.828125 L 6.125 0 Z M 2.5625 0 "/></g></g></g></svg>